
<svg xmlns="http://www.w3.org/2000/svg" viewBox="0 0 500 500">
	<defs>
		<filter x="-6.1%" y="-3.9%" width="112.1%" height="113.2%" filterUnits="objectBoundingBox" id="mines-filter-1">
			<feOffset dx="0" dy="10" in="SourceAlpha" result="minesShadowOffsetOuter1"></feOffset>
			<feGaussianBlur stdDeviation="8" in="minesShadowOffsetOuter1" result="minesShadowBlurOuter1"></feGaussianBlur>
			<feColorMatrix values="0 0 0 0 0   0 0 0 0 0   0 0 0 0 0  0 0 0 0.5 0" type="matrix" in="minesShadowBlurOuter1" result="minesShadowMatrixOuter1"></feColorMatrix>
			<feMerge>
				<feMergeNode in="minesShadowMatrixOuter1"></feMergeNode>
				<feMergeNode in="SourceGraphic"></feMergeNode>
			</feMerge>
		</filter>
	</defs>
	<g transform="translate(20, 25) scale(0.92)">
		<path filter="url(#mines-filter-1)" fill="#BABABA" d="M480,428c0,25.405-20.595,46-46,46H66c-25.405,0-46-20.595-46-46V60c0-25.405,20.595-46,46-46h368 c25.405,0,46,20.595,46,46V428z"/>
		<polygon fill="#FFFFFF" points="343.625,297.797 325.18,314.905 325.284,174.413 472.5,174.469 455.566,193.334 343.625,193.334 "/>
		<polygon fill="#7F7F7F" points="472.5,314.905 325.18,314.905 343.706,297.791 455.166,297.797 455.566,193.334 472.5,174.469 "/>
		<line fill="none" stroke="#727272" stroke-width="7" x1="177.666" y1="14" x2="177.666" y2="474"/>
		<polygon fill="#FFFFFF" points="343.625,450.297 325.18,467.405 325.284,321.913 472.5,321.969 455.566,340.834 343.625,340.834 "/>
		<polygon fill="#7F7F7F" points="448.334,467.405 325.18,467.405 343.706,450.291 455.166,450.297 455.566,340.834 472.5,321.969  472.5,440.667 465.667,459 "/>
		<line fill="none" stroke="#727272" stroke-width="7" x1="321.666" y1="14" x2="321.666" y2="474"/>
		<line fill="none" stroke="#727272" stroke-width="7" x1="20" y1="170.999" x2="480" y2="170.999"/>
		<line fill="none" stroke="#727272" stroke-width="7" x1="20" y1="318.332" x2="480" y2="318.332"/>
		<polygon fill="#0C00FF" points="70.333,140 136.667,140 136.667,122 118.667,122 118.667,50.333 101.667,50.333 67.167,85.833  89,85.833 89,122 70.333,122 "/>
		<polygon fill="#0C00FF" points="218.333,288 284.667,288 284.667,270 266.667,270 266.667,198.333 249.667,198.333 215.167,233.833  237,233.833 237,270 218.333,270 "/>
		<path fill="#FF0000" d="M293.01,77.52c0-16.544-10.752-29.02-25.01-29.02h-63.5v20H262c3.417,0,5.01,5.382,5.01,9.02 c0,2.476-0.622,4.783-1.665,6.172c-0.664,0.886-1.487,1.476-3.345,1.476h-32v20h32c1.857,0,2.681,0.59,3.345,1.476 c1.043,1.389,1.665,3.696,1.665,6.172c0,3.637-1.593,9.02-5.01,9.02h-57.5v20H268c14.258,0,25.01-12.476,25.01-29.02 c0-6.612-1.891-12.842-5.308-17.647C291.119,90.361,293.01,84.131,293.01,77.52z"/>
		<polygon fill="#0C00FF" points="70.334,432.5 136.667,432.5 136.667,414.5 118.667,414.5 118.667,342.834 101.667,342.834  67.167,378.334 89,378.334 89,414.5 70.334,414.5 "/>
		<path fill="#049600" d="M249.957,406.736c20.879-7.594,44.543-16.201,44.543-36.069c0-10.699-5.272-28.649-40.583-28.649 c-15.36,0-28.984,2.27-36.434,7.141c-5.39,3.525-11.816,10.35-11.816,22.842h24c0-3.479,1.001-4.41,2.309-5.266 c2.123-1.389,7.795-3.717,21.941-3.717c12.644,0,14.994,2.724,16.277,3.895c0.807,0.735,1.306,1.62,1.306,3.755 c0,0.848-1.434,3.119-6.808,6.25c-6.33,3.688-13.269,6.939-21.914,10.084c-18.998,6.91-36.939,13.442-37.268,28.666H205.5v20h88.667 v-20h-62.001C233.5,412.167,243.492,409.088,249.957,406.736z"/>
		<path d="M439.641,138.057l-9.062-16.153c4.794-6.101,7.983-13.519,8.937-21.624l17.817-5.29l-17.826-5.015 c-0.969-8.102-4.171-15.514-8.976-21.607l8.859-16.342l-16.154,9.061c-6.102-4.793-13.518-7.982-21.624-8.936l-5.289-17.817 l-5.015,17.827c-8.102,0.969-15.514,4.17-21.607,8.976l-16.343-8.86l9.062,16.154c-4.794,6.102-7.983,13.518-8.937,21.624 l-17.818,5.29l17.827,5.014c0.969,8.103,4.171,15.514,8.976,21.608l-8.859,16.341l16.153-9.061 c6.102,4.793,13.519,7.982,21.625,8.938L396.677,156l5.015-17.826c8.102-0.969,15.514-4.171,21.607-8.977L439.641,138.057z"/>
		<circle fill="#FFFFFF" cx="381.706" cy="81.434" r="10.61"/>
		<path fill="none" stroke="#727272" stroke-width="15" d="M480,432c0,21.405-20.595,42-46,42H66 c-25.405,0-46-20.595-46-42V64c0-29.405,20.595-50,46-50h368c25.405,0,46,20.595,46,50V432z"/>
	</g>
</svg>
