
<svg xmlns="http://www.w3.org/2000/svg" viewBox="0 0 55 55">
	<style type="text/css">
		.st0{fill:#BABABA;}
		.st1{fill:#FFFFFF;}
		.st2{fill:#7F7F7F;}
		.st3{fill:#727272;}
		.st4{fill:#0C00FF;}
		.st5{fill:#FF0000;}
		.st6{fill:#049600;}
	</style>
	<path class="st0" d="M51.2,46.5c0,2.6-2.1,4.7-4.7,4.7h-38c-2.6,0-4.7-2.1-4.7-4.7v-38c0-2.6,2.1-4.7,4.7-4.7h38
		c2.6,0,4.7,2.1,4.7,4.7V46.5z"/>
	<polygon class="st1" points="37.2,33 35.3,34.8 35.3,20.3 50.4,20.3 48.7,22.3 37.2,22.3 "/>
	<polygon class="st2" points="50.4,34.8 35.3,34.8 37.2,33 48.7,33 48.7,22.3 50.4,20.3 "/>
	<rect x="19.7" y="3.8" class="st3" width="0.7" height="47.4"/>
	<polygon class="st1" points="37.2,48.8 35.3,50.5 35.3,35.5 50.4,35.5 48.7,37.5 37.2,37.5 "/>
	<polygon class="st2" points="48,50.5 35.3,50.5 37.2,48.8 48.7,48.8 48.7,37.5 50.4,35.5 50.4,47.8 49.7,49.7 "/>
	<rect x="34.5" y="3.8" class="st3" width="0.7" height="47.4"/>
	<rect x="3.8" y="19.6" class="st3" width="47.4" height="0.7"/>
	<rect x="3.8" y="34.8" class="st3" width="47.4" height="0.7"/>
	<polygon class="st4" points="9,16.8 15.8,16.8 15.8,14.9 14,14.9 14,7.5 12.2,7.5 8.6,11.2 10.9,11.2 10.9,14.9 9,14.9 "/>
	<polygon class="st4" points="24.2,32 31.1,32 31.1,30.2 29.2,30.2 29.2,22.8 27.5,22.8 23.9,26.5 26.2,26.5 26.2,30.2 24.2,30.2 "/>
	<path class="st5" d="M31.9,10.3c0-1.7-1.1-3-2.6-3h-6.5v2.1h5.9c0.4,0,0.5,0.6,0.5,0.9c0,0.3-0.1,0.5-0.2,0.6
		c-0.1,0.1-0.2,0.2-0.3,0.2h-3.3v2.1h3.3c0.2,0,0.3,0.1,0.3,0.2c0.1,0.1,0.2,0.4,0.2,0.6c0,0.4-0.2,0.9-0.5,0.9h-5.9V17h6.5
		c1.5,0,2.6-1.3,2.6-3c0-0.7-0.2-1.3-0.5-1.8C31.7,11.7,31.9,11,31.9,10.3z"/>
	<polygon class="st4" points="9,46.9 15.8,46.9 15.8,45.1 14,45.1 14,37.7 12.2,37.7 8.6,41.4 10.9,41.4 10.9,45.1 9,45.1 "/>
	<path class="st6" d="M27.5,44.3c2.2-0.8,4.6-1.7,4.6-3.7c0-1.1-0.5-3-4.2-3c-1.6,0-3,0.2-3.8,0.7c-0.6,0.4-1.2,1.1-1.2,2.4h2.5
		c0-0.4,0.1-0.5,0.2-0.5c0.2-0.1,0.8-0.4,2.3-0.4c1.3,0,1.5,0.3,1.7,0.4c0.1,0.1,0.1,0.2,0.1,0.4c0,0.1-0.1,0.3-0.7,0.6
		c-0.7,0.4-1.4,0.7-2.3,1c-2,0.7-3.8,1.4-3.8,3h0v2.1h9.1v-2.1h-6.4C25.8,44.8,26.8,44.5,27.5,44.3z"/>
	<path d="M47.1,16.6l-0.9-1.7c0.5-0.6,0.8-1.4,0.9-2.2l1.8-0.5L47,11.6c-0.1-0.8-0.4-1.6-0.9-2.2L47,7.7l-1.7,0.9
		c-0.6-0.5-1.4-0.8-2.2-0.9l-0.5-1.8l-0.5,1.8c-0.8,0.1-1.6,0.4-2.2,0.9l-1.7-0.9l0.9,1.7c-0.5,0.6-0.8,1.4-0.9,2.2l-1.8,0.5l1.8,0.5
		c0.1,0.8,0.4,1.6,0.9,2.2l-0.9,1.7l1.7-0.9c0.6,0.5,1.4,0.8,2.2,0.9l0.5,1.8l0.5-1.8c0.8-0.1,1.6-0.4,2.2-0.9L47.1,16.6z"/>
	<circle class="st1" cx="41.1" cy="10.7" r="1.1"/>
	<path class="st3" d="M46.5,52h-38C5.6,52,3,49.6,3,46.9v-38C3,5.6,5.4,3,8.5,3h38C49.6,3,52,5.6,52,8.9v38C52,49.6,49.4,52,46.5,52z
		 M8.5,4.6c-2.3,0-4,1.9-4,4.4v38c0,2,2.1,3.6,4,3.6h38c1.9,0,4-1.5,4-3.6v-38c0-2.5-1.7-4.4-4-4.4H8.5z"/>
</svg>
