<svg xmlns="http://www.w3.org/2000/svg" width="0" height="0">

	<svg id="icon-flag" viewBox="0 0 19 19">
		<style type="text/css">
			.st0{fill:none;stroke:#fff;stroke-miterlimit:10;}
			.st1{fill:url(#SVGID_1_);}
			.st2{fill:url(#SVGID_2_);}
		</style>
		<linearGradient id="SVGID_1_" gradientUnits="userSpaceOnUse" x1="5.9973" y1="6.4694" x2="15.9605" y2="6.4694">
			<stop  offset="0" style="stop-color:#AA0004"/>
			<stop  offset="0.3917" style="stop-color:#FF7F83"/>
			<stop  offset="1" style="stop-color:#AA0004"/>
		</linearGradient>
		<linearGradient id="SVGID_2_" gradientUnits="userSpaceOnUse" x1="3.9936" y1="9.4969" x2="5.9973" y2="9.4969">
			<stop  offset="0" style="stop-color:#944200"/>
			<stop  offset="0.5469" style="stop-color:#FFAA00"/>
			<stop  offset="1" style="stop-color:#944200"/>
		</linearGradient>
		<path class="st0" d="M6,2H4v15h2v-6.1C7.3,8.3,13.8,9,16,5.5C11.5,5,9.4,2.5,6,2z"/>
		<path class="st1" d="M6,10.9V2c3.4,0.5,5.5,3,10,3.5C13.8,9,7.3,8.3,6,10.9z"/>
		<rect x="4" y="2" class="st2" width="2" height="15"/>
	</svg>

	<svg id="icon-qmark" viewBox="0 0 19 19">
		<style type="text/css">
			.st0{fill:none;stroke:#fff;}
			.st1{fill:none;stroke:#fff;stroke-width:1.5;}
			.st2{fill:#0093b3;}
		</style>
		<path class="st0" d="M8,16.5v-2.9h2.8v2.9H8z"/>
		<path class="st1" d="M10.5,12.4H8.3c0-0.3,0-0.5,0-0.6c0-0.7,0.1-1.3,0.4-1.8C8.8,9.5,9.3,9,10,8.4c0.7-0.6,1.1-1,1.3-1.1
			c0.2-0.3,0.3-0.6,0.3-0.9c0-0.5-0.2-0.9-0.6-1.2c-0.4-0.3-0.9-0.5-1.5-0.5C8.9,4.6,8.4,4.8,8,5.2C7.6,5.5,7.3,6,7.1,6.8L4.9,6.5
			c0.1-1,0.5-1.9,1.3-2.6s1.9-1.1,3.2-1.1c1.4,0,2.5,0.4,3.3,1.1S14,5.5,14,6.4c0,0.5-0.2,1-0.5,1.5s-1,1.1-2,2c-0.5,0.4-0.8,0.8-1,1
			C10.5,11.2,10.5,11.7,10.5,12.4z"/>
		<path class="st2" d="M10.5,12.4H8.3c0-0.3,0-0.5,0-0.6c0-0.7,0.1-1.3,0.4-1.8c0.2-0.5,0.7-1,1.4-1.6c0.7-0.6,1.1-1,1.3-1.1
			c0.2-0.3,0.3-0.6,0.3-0.9c0-0.5-0.2-0.9-0.6-1.2c-0.4-0.3-0.9-0.5-1.5-0.5C8.9,4.6,8.4,4.8,8,5.2C7.6,5.5,7.3,6,7.1,6.8L4.9,6.5
			c0.1-1,0.5-1.9,1.3-2.6s1.9-1.1,3.2-1.1c1.4,0,2.5,0.4,3.3,1.1S14,5.5,14,6.4c0,0.5-0.2,1-0.5,1.5s-1,1.1-2,2c-0.5,0.4-0.8,0.8-1,1
			C10.5,11.2,10.5,11.7,10.5,12.4z M8,16.5v-2.9h2.8v2.9H8z"/>
	</svg>

	<svg id="icon-cross" viewBox="0 0 19 19">
		<style type="text/css">
			.st0{fill:none;stroke:#fff;stroke-width:1.5;stroke-miterlimit:10;}
			.st1{fill:#f00;}
		</style>
		<polygon class="st0" points="15.2,5.3 13.7,3.8 9.5,8.1 5.3,3.8 3.8,5.3 8.1,9.5 3.8,13.7 5.3,15.2 9.5,10.9 13.7,15.2 15.2,13.7 
			10.9,9.5 "/>
		<polygon class="st1" points="15.2,5.3 13.7,3.8 9.5,8.1 5.3,3.8 3.8,5.3 8.1,9.5 3.8,13.7 5.3,15.2 9.5,10.9 13.7,15.2 15.2,13.7 
			10.9,9.5 "/>
	</svg>

	<svg id="icon-mine" viewBox="0 0 19 19">
		<style type="text/css">
			.st0{fill:none;stroke:#fff;opacity:.5;stroke-miterlimit:10;}
			.st1{fill:url(#SVGID_1_);}
		</style>
		<radialGradient id="SVGID_1_" cx="8.0271" cy="9.3658" r="5.8058" fx="5.8149" fy="7.2634" gradientUnits="userSpaceOnUse">
			<stop  offset="0" style="stop-color:#FFFFFF"/>
			<stop  offset="6.008554e-02" style="stop-color:#E3E3E3"/>
			<stop  offset="0.2018" style="stop-color:#A8A8A8"/>
			<stop  offset="0.343" style="stop-color:#757575"/>
			<stop  offset="0.4806" style="stop-color:#4B4B4B"/>
			<stop  offset="0.6136" style="stop-color:#2A2A2A"/>
			<stop  offset="0.7408" style="stop-color:#131313"/>
			<stop  offset="0.8599" style="stop-color:#050505"/>
			<stop  offset="0.9626" style="stop-color:#000000"/>
		</radialGradient>
		<path class="st0" d="M17.2,1.6l-1.4,0.7c0.1,0.1,0.2,0.3,0.3,0.4c0,0.1,0.1,0.3-0.1,0.7c-0.2,0.4-0.4,0.4-0.9,0.5
			c-0.4,0.1-0.9,0.2-1.4,0.5l-0.6-0.6L11.9,5c-2.5-1.5-5.8-1.2-8,0.9c-2.5,2.5-2.5,6.6,0,9.2c2.5,2.5,6.6,2.5,9.2,0
			c2.2-2.2,2.5-5.5,0.9-8l1.2-1.2l-0.5-0.5c0.2-0.1,0.4-0.1,0.6-0.2c0.6-0.1,1.5-0.3,2-1.3c0.3-0.6,0.4-1.3,0.2-1.9
			C17.4,1.9,17.3,1.7,17.2,1.6z"/>
		<path class="st1" d="M17.2,1.6l-1.4,0.7c0.1,0.1,0.2,0.3,0.3,0.4c0,0.1,0.1,0.3-0.1,0.7c-0.2,0.4-0.4,0.4-0.9,0.5
			c-0.4,0.1-0.9,0.2-1.4,0.5l-0.6-0.6L11.9,5c-2.5-1.5-5.8-1.2-8,0.9c-2.5,2.5-2.5,6.6,0,9.2c2.5,2.5,6.6,2.5,9.2,0
			c2.2-2.2,2.5-5.5,0.9-8l1.2-1.2l-0.5-0.5c0.2-0.1,0.4-0.1,0.6-0.2c0.6-0.1,1.5-0.3,2-1.3c0.3-0.6,0.4-1.3,0.2-1.9
			C17.4,1.9,17.3,1.7,17.2,1.6z"/>
	</svg>

</svg>